/* XPM */
static const char * const logo_50_xpm[] = {
"50 50 26 1",
" 	c None",
".	c #242424",
"+	c #DBDBDB",
"@	c #FFFFFF",
"#	c #494949",
"$	c #6D6D6D",
"%	c #DBFFFF",
"&	c #B6B6B6",
"*	c #DBFFDB",
"=	c #B6DBDB",
"-	c #6D9292",
";	c #929292",
">	c #B6DBB6",
",	c #92B692",
"'	c #496D6D",
")	c #FFDBDB",
"!	c #FFFFDB",
"~	c #92926D",
"{	c #242449",
"]	c #DBDBB6",
"^	c #DBB6B6",
"/	c #6D926D",
"(	c #492449",
"_	c #496D49",
":	c #6D6D92",
"<	c #92B6B6",
"                                                  ",
"                                                  ",
"                                                  ",
"                                                  ",
"                     .+@+                         ",
".##############  .####@@@@######$############.### ",
"+@@@@@@@@%@@@@@  +@@@&@@@@@@@@@@%@@@@@@@@@@@@*@@@ ",
"#@@@@@@@@=&@@@+  #@@@$@@@$@@@@@@-;@@@@@@$@@@&$@@@ ",
"#@@@@@@@@=&@@@+  .@@@$&@>#@@@@@@-;@@@@@@$@@@,'@@@ ",
"#++++@@@+>&@@@+  .@@@&;$&#++@@@+-;@@@+++$@@@,#@@@ ",
"....#+++$.&++@+  .+++$+++;..++)#.;++!#...+++,#+++#",
"    #+++> &++++  .+++$++++..+++&.;+++&...+++;#+++#",
"    #++++ &++++  .+++$++++..+++@.;+++@...++++++++$",
"    #++++ &++++@&#+++$++++..+++@.;+++@...++++++++~",
"    #++++ &++++++#+++$++++..+++@.;+++@...+++#$+++;",
"    #++++ &++++++++++$++++..+++@.;+++@@@{+++,#+++;",
"    #++++ &+++++++++]$++++..+++@.;++==+&$+++,#+++&",
"    #&&&+ &&&&&&&&&&&$&&&+..&&^@.;&&&&&&$&&&,#&&&&",
"    #&&&+ ;&&&&#$&&&&$&&&+..&&&@.;&&&&&&$&&&,#&&&+",
"    #&&&+ .####...#######&..###+..##########$#&&&@",
"    #&&&+ .....  ......... .... .............#&&&@",
"    #&&/&                   ##&@@&           .(##+",
"    #&'# .          #&@@@@@@@++++@@              .",
"    #/#.           @@@@@+++++%++;+@.              ",
"    ...           +++@+&;#######_#@               ",
"                  &+%##$$$$$$$$/$'+               ",
"                  $++$:-/////////'+.              ",
"                  #++$-///////<&/'+#              ",
"                   ++$/$+++++'+&/'+;              ",
"                   ++'/$++;$+'+&/'+&              ",
"                   ++'//_+&'+/+</'+&              ",
"                   ++-$$$++$+++;$'+@              ",
"                   &+&$''++'<++;''+@              ",
"                   $++'''++$_++-''&@              ",
"                   #+%'''++''/'''';@              ",
"                   #+@'''_''''''''$@              ",
"                   .+%''''''''''''/+              ",
"                   .(%_'''''''';++$+              ",
"                   ..%#''''<*+$#..#.              ",
"                    .;$#&++$#.....                ",
"                     .###.... .                   ",
"                      .. .                        ",
"                                                  ",
"                                                  ",
"                                                  ",
"                                                  ",
"                                                  ",
"                                                  ",
"                                                  ",
"                                                  "};
