/* XPM */
static const char * const twitch_100_xpm[] = {
"100 50 33 1",
" 	c None",
".	c #000000",
"+	c #575757",
"@	c #B6B6B6",
"#	c #E5E5E5",
"$	c #FFFFFF",
"%	c #878787",
"&	c #292929",
"*	c #E5FFE5",
"=	c #E5FFFF",
"-	c #B6E5E5",
";	c #87B6B6",
">	c #002929",
",	c #295729",
"'	c #295757",
")	c #87B687",
"!	c #B6E5B6",
"~	c #578787",
"{	c #57B687",
"]	c #578757",
"^	c #572929",
"/	c #575787",
"(	c #FFE5FF",
"_	c #292900",
":	c #FFE5E5",
"<	c #FFFFE5",
"[	c #E5E5B6",
"}	c #E5B6B6",
"|	c #000029",
"1	c #E5B6E5",
"2	c #B6B6E5",
"3	c #290029",
"4	c #575729",
"                                                                                                    ",
"                                                                                                    ",
"                                                                                                    ",
"                                                                                                    ",
"                                                                                                    ",
"                                                                                    .............   ",
"                                                                                 ...++@#$$$$$$$$$.  ",
"                                                                             ....%#$$$$$$$$$$$$$$#. ",
"                                ..&&...                                   ..&@@$$$$$$$$$$*######$$. ",
"                               .&$$$$$.                                  .@$$$$$$########==##-%@#$. ",
" +&&&&&&&&&&&&&.&&&&&&....&&&&&&$$$$$$+&&&&&&&&&+&&&&&&&&&&&&&&&&&&.&&&&&%$#########==$$#;%+&&>>#$+.",
"$$$$$$$$$$$$$$$$$$$$$$&..#$$$$$$@$$$$$$$$$$$$$$$$$$$$$$$$$$$$$$$$$$$$$$$$####$=##@%+&>&&&&&&&,,&@$#.",
"@$$$$$$$$$$$$$$$$$$$$$@..%$$$$$*%$$$$-$$$$$$$$$$=$$$$$$$$$$*$$$$$$$*$$$$*#-#$#+&&&&&&&&&&,''+++')$#.",
"%$$$$$$$$$$$$$-#$$$$$*@..+$$$$$;+$$$$;#$$$$$$$$$@#$$$$$$$$$)#$$$$$##$$$$!###=&&&&&&&&,'+++++++++%##.",
".$$$$$$$$$$$$$%&$$$$$#@...#$$$$)&$$$$)&$$$$$$$$$~%$$$$$$$$${+$$$$$@+$$$$!%###&++++++++++]]]]]]]+%##.",
".$$$$$$$$$$$$$%&$$$$$#@...#$$$${&$$$$)&$$$$$$$$$~%$$$$$$$$$~+$$$$$;,$$$$!+###+++++++]]]]]]]]]]]+]#$.",
".$$$$$$$$$$$$$%&$$$$$#@...#$$$$).&@@'+&$$$$$$$$$~%$$$$$$$$$~+*$$$$)^$$$$!&###+/~~~]]]]]]]]]]]]]++#(.",
".$$$$$$$$$$$$$%&$$$$$#@...#$$$$)&&&&+%&$$$$$$$$$~%$$$$$$$$${+#$$$$)^$$$$@&###+~~~]]]]]]+]]];@]]++#$.",
".######*$$$$##~&$$$$$#@...#$$$$)%%+%@@&##*$$$$##~%$$$$#####~+#$$$$)&$$$$@&###++]]]]++]%@#]+##]]++#$.",
"..&___&#:::<&&&&$:::$#@...#::::)%:::#)..&#::(<,&&%:::={&&_&+&#:::<)&::::!&###%+]]%#######+'##]]+,#$.",
".......#####+...(###$#@...#####)+####)&..####:+..%####{+.....#####)&####@&###%+]]]#######]'##]]+,#$.",
"      .#####!&..######@...#####{+####{@..#####@&.%####{-&....#####%&####@&@##@+]]+####+##@'##]]+,#$.",
"      .######+..######@...#####{+####)$..#####!%.%####{#%....###########;&%###+]]'+###'@##'##+++,#$.",
"      .######%..######@...#####{+####{$..#####!@.%####{#@....###########;+%###+]]+,###'%##]##+]+,#$.",
"      .######%..######@&..#####{+####{$..#####!#.%####{#@....###########;++##='+]+'###+,#####+]''#$.",
"      .######%..######$#&.#####{+####{$..#####![.%####{#@....###########;+&##$'+']+###+,#####++]'#$.",
"      .@#####%..######$##+#####{+####{$..[####!}.%####{#@....#####+]####;%&-#='+''+###]'!####'+''#$+",
"      .@#####%..#########%#####{+####{$..@####![.%####{#@....#####&+####;%&@#='+'''@##~+;####''''#$+",
"      .@#####%..##########[####{+####{$..@####![.%####{#@....#####+'####;%.%#$'''++@##%']####'+''!#%",
"      .@#####%..###############{+####{$..@####![.%####{#$$$+|#####)&####;%.&#=''''']##;',####'''';##",
"      .@#####%..###############{+####{$..@####![.%####{#$$$@&[####)&####;@.&#='''''+##@''###@''+'%##",
"      .@#####%..##############[{+####{$..@##[#![.%####}11#@{+@####)&####;@.&#=+'''',##@'',''''+''~#$",
"      .@@@@@#%..#@@@@@@@@@@@@@@{+@@@2{$..@@@@#![.%@@@2}@@@@{+@@@@@)&@@@@;@.&#=~'''',%+'''''''+'''+#$",
"      .@@@@@#%..}@@@@@@@@@@@@@@{+@@@@{$..@@@@}!-.%}@@@@@@@@{+@@@@@)&@@@@;@.&#=)''''''''''''''''''+#$",
"      .@@@@@#%..@@@@@@@,@@@@@@@{+@@@@{$..@@@@@![.%@@@@@@@@@{+@@@@@)&@@@@;#..###'''''''''''''''''']#$",
"      .@@@@@#%..@@@@@@]&+@@@@@@{+@@@@)$..@@@@@!1.%@@@@@@@@@~+@@@@@)&@@@@;#..@*#''''''''''''''''''!##",
"      .@@@@@#%..~~~~~,&..&+~~~~)&~~~~;$..+~~~%!#.&~~~~~~~~~)&+~~~~%&@@@@;#..3#$,''''''''''''+@###+@&",
"      .@@@@@#%..&&&&&&& ..&&&&&+.&&&&%$...&&&&@@..&&&&&&&&&+&>&&&&+&@@@@;$. .#$,''''''''''];##@%&+%.",
"      .@@@@@#%.......&.  ......&.....+@.......++...........&......&&@@@@;$. .#$&,'''''''%-#=@+&.&+&.",
"      .@@@@@#%........    .........................................&;;;;;$. .&=&,',+)@=#@&&......   ",
"      .@@@@)#%.                                                   ..&&&&%#. ..=+&'@#==;&&.....      ",
"      .@@@)+%..                                                    ......&. ..&#=#%&.......         ",
"      .@@{'+&.                                                               ..&&&&.....            ",
"      .@@'+&..                                                                ......                ",
"      .),&&..                                                                                       ",
"      .&4&..                                                                                        ",
"      .....                                                                                         ",
"      ...                                                                                           ",
"                                                                                                    ",
"                                                                                                    "};
